{"title":"Mighty Joe Young [1949] DVDRip x264","uid":12344919,"size":754221343,"categoryP":"video","categoryS":"movies","magnet":"?xt=urn:btih:d7beccea2483c00a3b0e02213e0294b558e841d2&amp;dn=Mighty+Joe+Young+%5B1949%5D+DVDRip+x264&amp;tr=udp%3A%2F%2Ftracker.openbittorrent.com%3A80&amp;tr=udp%3A%2F%2Fopen.demonii.com%3A1337&amp;tr=udp%3A%2F%2Ftracker.coppersurfer.tk%3A6969&amp;tr=udp%3A%2F%2Fexodus.desync.com%3A6969","seeders":0,"leechers":1,"uploader":null,"files":1,"time":1441339033,"description":"Format : MPEG-4\nFormat profile : Base Media / Version 2\nCodec ID : mp42\nFile size : 719 MiB\nDuration : 1h 33mn\nOverall bit rate mode : Variable\nOverall bit rate : 1 072 Kbps\n\nVideo\nID : 1\nFormat : AVC\nFormat/Info : Advanced Video Codec\nFormat profile : High@L3\nFormat settings, CABAC : Yes\nFormat settings, ReFrames : 4 frames\nCodec ID : avc1\nCodec ID/Info : Advanced Video Coding\nDuration : 1h 33mn\nBit rate : 800 Kbps\nWidth : 720 pixels\nHeight : 480 pixels\nDisplay aspect ratio : 4:3\nOriginal display aspect ratio : 4:3\nFrame rate mode : Variable\nFrame rate : 23.976 fps\nMinimum frame rate : 11.989 fps\nMaximum frame rate : 47.244 fps\nColor space : YUV\nChroma subsampling : 4:2:0\nBit depth : 8 bits\nScan type : Progressive\nBits/(Pixel*Frame) : 0.097\nStream size : 536 MiB (75%)\nWriting library : x264 core 142 r2479 dd79a61\nEncoding settings : cabac=1 / ref=3 / deblock=1:0:0 / analyse=0x3:0x113 / me=hex / subme=7 / psy=1 / psy_rd=1.00:0.00 / mixed_ref=1 / me_range=16 / chroma_me=1 / trellis=1 / 8x8dct=1 / cqm=0 / deadzone=21,11 / fast_pskip=1 / chroma_qp_offset=-2 / threads=6 / lookahead_threads=1 / sliced_threads=0 / nr=0 / decimate=1 / interlaced=0 / bluray_compat=0 / constrained_intra=0 / bframes=3 / b_pyramid=2 / b_adapt=1 / b_bias=0 / direct=1 / weightb=1 / open_gop=0 / weightp=2 / keyint=240 / keyint_min=24 / scenecut=40 / intra_refresh=0 / rc_lookahead=40 / rc=2pass / mbtree=1 / bitrate=800 / ratetol=1.0 / qcomp=0.60 / qpmin=0 / qpmax=69 / qpstep=4 / cplxblur=20.0 / qblur=0.5 / ip_ratio=1.40 / aq=1:1.00\nColor range : Limited\nColor primaries : BT.601 NTSC\nTransfer characteristics : BT.709\nMatrix coefficients : BT.601\n\nAudio #1\nID : 2\nFormat : AAC\nFormat/Info : Advanced Audio Codec\nFormat profile : LC\nCodec ID : 40\nDuration : 1h 33mn\nBit rate mode : Variable\nBit rate : 128 Kbps\nChannel(s) : 2 channels\nChannel(s)_Original : 1 channel\nChannel positions : Front: C\nSampling rate : 48.0 KHz\nCompression mode : Lossy\nStream size : 85.8 MiB (12%)\nTitle : Mono / Mono\nLanguage : English\n\nAudio #2\nID : 3\nFormat : AAC\nFormat/Info : Advanced Audio Codec\nFormat profile : LC\nCodec ID : 40\nDuration : 1h 33mn\nBit rate mode : Variable\nBit rate : 128 Kbps\nChannel(s) : 2 channels\nChannel positions : Front: L R\nSampling rate : 48.0 KHz\nCompression mode : Lossy\nStream size : 85.8 MiB (12%)\nTitle : Stereo / Stereo\nLanguage : English\n\nText #1\nID : 4\nFormat : mp4s\nCodec ID : E0\nDuration : 1h 33mn\nBit rate mode : Variable\nBit rate : 2 090 bps\nStream size : 1.40 MiB (0%)\nLanguage : English\n\nText #2\nID : 5\nFormat : mp4s\nCodec ID : E0\nDuration : 1h 33mn\nBit rate mode : Variable\nBit rate : 1 744 bps\nStream size : 1.17 MiB (0%)\nLanguage : French\n\nText #3\nID : 6\nFormat : mp4s\nCodec ID : E0\nDuration : 1h 33mn\nBit rate mode : Variable\nBit rate : 2 081 bps\nStream size : 1.40 MiB (0%)\nLanguage : Spanish\n\nMenu\nID : 7\nCodec ID : text\nDuration : 1h 33mn\nLanguage : English\n00:00:00.000 : Chapter 1\n00:01:20.731 : Chapter 2\n00:05:24.007 : Chapter 3\n00:10:19.469 : Chapter 4\n00:13:50.646 : Chapter 5\n00:17:24.894 : Chapter 6\n00:20:23.406 : Chapter 7\n00:24:00.623 : Chapter 8\n00:26:46.421 : Chapter 9\n00:30:58.040 : Chapter 10\n00:32:24.793 : Chapter 11\n00:35:52.500 : Chapter 12\n00:41:05.113 : Chapter 13\n00:43:52.434 : Chapter 14\n00:47:02.658 : Chapter 15\n00:51:30.725 : Chapter 16\n00:54:51.960 : Chapter 17\n00:58:46.160 : Chapter 18\n01:04:46.854 : Chapter 19\n01:08:52.600 : Chapter 20\n01:12:59.847 : Chapter 21\n01:18:42.522 : Chapter 22\n01:21:29.022 : Chapter 23\n01:25:50.283 : Chapter 24\n01:27:46.599 : Chapter 25\n01:31:27.286 : Chapter 26\nBit rate mode : VBR","torrent":{"xt":"urn:btih:d7beccea2483c00a3b0e02213e0294b558e841d2","amp;dn":"Mighty+Joe+Young+%5B1949%5D+DVDRip+x264","amp;tr":["udp%3A%2F%2Ftracker.openbittorrent.com%3A80","udp%3A%2F%2Fopen.demonii.com%3A1337","udp%3A%2F%2Ftracker.coppersurfer.tk%3A6969","udp%3A%2F%2Fexodus.desync.com%3A6969"],"infoHash":"d7beccea2483c00a3b0e02213e0294b558e841d2","infoHashBuffer":{"type":"Buffer","data":[215,190,204,234,36,131,192,10,59,14,2,33,62,2,148,181,88,232,65,210]},"announce":[],"urlList":[]}}